# Blender v2.71 (sub 0) OBJ File: ''
# www.blender.org
o Cube
v 2.959666 -2.899734 -2.959666
v 2.959666 -2.899734 2.959666
v -2.959666 -2.899734 2.959665
v -2.959665 -2.899734 -2.959667
v 2.959667 3.019597 -2.959664
v 2.959664 3.019597 2.959667
v -2.959667 3.019597 2.959665
v -2.959666 3.019597 -2.959666
vn 0.000000 -1.000000 0.000000
vn 0.000000 1.000000 0.000000
vn 1.000000 0.000000 0.000000
vn -0.000000 -0.000000 1.000000
vn -1.000000 -0.000000 -0.000000
vn 0.000000 0.000000 -1.000000
s off
f 1//1 2//1 3//1 4//1
f 5//2 8//2 7//2 6//2
f 1//3 5//3 6//3 2//3
f 2//4 6//4 7//4 3//4
f 3//5 7//5 8//5 4//5
f 5//6 1//6 4//6 8//6
